HIERARCHY
ROOT reference
{
  OFFSET 0 0 0
  CHANNELS 6 Xposition Yposition Zposition Zrotation Xrotation Yrotation
  JOINT Hips
  {
    OFFSET 340.57 87.5694 214.797
    CHANNELS 3 Zrotation Xrotation Yrotation
    JOINT RightUpLeg
    {
      OFFSET -9.35418 -1.55218 -0.019184
      CHANNELS 3 Zrotation Xrotation Yrotation
      JOINT RightLeg
      {
        OFFSET -0.0482219 -41.8948 0.0725956
        CHANNELS 3 Zrotation Xrotation Yrotation
        JOINT RightFoot
        {
          OFFSET -1.00159 -42.3965 -1.97064
          CHANNELS 3 Zrotation Xrotation Yrotation
          End Site
          {
            OFFSET 0 -7.69 17.5
          }
        }
      }
    }
    JOINT LeftUpLeg
    {
      OFFSET 9.33628 -1.64535 -0.0795185
      CHANNELS 3 Zrotation Xrotation Yrotation
      JOINT LeftLeg
      {
        OFFSET 0.124871 -41.8725 -0.08325
        CHANNELS 3 Zrotation Xrotation Yrotation
        JOINT LeftFoot
        {
          OFFSET 0.728222 -40.8097 2.1196
          CHANNELS 3 Zrotation Xrotation Yrotation
          End Site
          {
            OFFSET 0 -7.69 17.5
          }
        }
      }
    }
    JOINT Spine
    {
      OFFSET -0.0135102 14.2943 0.0647361
      CHANNELS 3 Zrotation Xrotation Yrotation
      JOINT Spine1
      {
        OFFSET 0.0181502 9.72385 0.0148045
        CHANNELS 3 Zrotation Xrotation Yrotation
        JOINT Spine2
        {
          OFFSET 0.0557859 10.1166 -0.00979693
          CHANNELS 3 Zrotation Xrotation Yrotation
          JOINT Spine3
          {
            OFFSET 0.0359868 9.71757 0.00306838
            CHANNELS 3 Zrotation Xrotation Yrotation
            JOINT Neck
            {
              OFFSET 0.139197 10.3803 0.0501204
              CHANNELS 3 Zrotation Xrotation Yrotation
              JOINT Head
              {
                OFFSET 0.148012 9.47645 -0.000545472
                CHANNELS 3 Zrotation Xrotation Yrotation
                End Site
                {
                  OFFSET 0 15.95 0
                }
              }
            }
            JOINT RightShoulder
            {
              OFFSET -3.16276 6.92807 0.0312834
              CHANNELS 3 Zrotation Xrotation Yrotation
              JOINT RightArm
              {
                OFFSET -12.7681 0.0492996 0.0890957
                CHANNELS 3 Zrotation Xrotation Yrotation
                JOINT RightForeArm
                {
                  OFFSET -26.4761 -0.090776 0.147076
                  CHANNELS 3 Zrotation Xrotation Yrotation
                  JOINT RightHand
                  {
                    OFFSET -25.9655 0.0607057 -0.248467
                    CHANNELS 3 Zrotation Xrotation Yrotation
                    JOINT RightHandThumb1
                    {
                      OFFSET -2.48905 0.190105 3.12053
                      CHANNELS 3 Zrotation Xrotation Yrotation
                      JOINT RightHandThumb2
                      {
                        OFFSET -3.68274 0 0
                        CHANNELS 3 Zrotation Xrotation Yrotation
                        JOINT RightHandThumb3
                        {
                          OFFSET -2.55832 0 0
                          CHANNELS 3 Zrotation Xrotation Yrotation
                          End Site
                          {
                            OFFSET -2.194 0 0
                          }
                        }
                      }
                    }
                    JOINT RightInHandIndex
                    {
                      OFFSET -3.22368 0.508421 1.97842
                      CHANNELS 3 Zrotation Xrotation Yrotation
                      JOINT RightHandIndex1
                      {
                        OFFSET -5.21684 -0.091368 0.999158
                        CHANNELS 3 Zrotation Xrotation Yrotation
                        JOINT RightHandIndex2
                        {
                          OFFSET -3.61937 0 0
                          CHANNELS 3 Zrotation Xrotation Yrotation
                          JOINT RightHandIndex3
                          {
                            OFFSET -2.0521 0 0
                            CHANNELS 3 Zrotation Xrotation Yrotation
                            End Site
                            {
                              OFFSET -1.805 0 0
                            }
                          }
                        }
                      }
                    }
                    JOINT RightInHandMiddle
                    {
                      OFFSET -3.38211 0.517263 0.756737
                      CHANNELS 3 Zrotation Xrotation Yrotation
                      JOINT RightHandMiddle1
                      {
                        OFFSET -5.17411 -0.084 0.313895
                        CHANNELS 3 Zrotation Xrotation Yrotation
                        JOINT RightHandMiddle2
                        {
                          OFFSET -3.94947 0 0
                          CHANNELS 3 Zrotation Xrotation Yrotation
                          JOINT RightHandMiddle3
                          {
                            OFFSET -2.47579 0 0
                            CHANNELS 3 Zrotation Xrotation Yrotation
                            End Site
                            {
                              OFFSET -1.975 0 0
                            }
                          }
                        }
                      }
                    }
                    JOINT RightInHandRing
                    {
                      OFFSET -3.36516 0.537895 -0.128947
                      CHANNELS 3 Zrotation Xrotation Yrotation
                      JOINT RightHandRing1
                      {
                        OFFSET -4.63474 -0.022105 -0.478947
                        CHANNELS 3 Zrotation Xrotation Yrotation
                        JOINT RightHandRing2
                        {
                          OFFSET -3.44238 0 0
                          CHANNELS 3 Zrotation Xrotation Yrotation
                          JOINT RightHandRing3
                          {
                            OFFSET -2.3881 0 0
                            CHANNELS 3 Zrotation Xrotation Yrotation
                            End Site
                            {
                              OFFSET -1.857 0 0
                            }
                          }
                        }
                      }
                    }
                    JOINT RightInHandPinky
                    {
                      OFFSET -3.16105 0.469368 -1.20179
                      CHANNELS 3 Zrotation Xrotation Yrotation
                      JOINT RightHandPinky1
                      {
                        OFFSET -4.14105 -0.022105 -1.09053
                        CHANNELS 3 Zrotation Xrotation Yrotation
                        JOINT RightHandPinky2
                        {
                          OFFSET -2.75653 0 0
                          CHANNELS 3 Zrotation Xrotation Yrotation
                          JOINT RightHandPinky3
                          {
                            OFFSET -1.74189 0 0
                            CHANNELS 3 Zrotation Xrotation Yrotation
                            End Site
                            {
                              OFFSET -1.645 0 0
                            }
                          }
                        }
                      }
                    }
                  }
                }
              }
            }
            JOINT LeftShoulder
            {
              OFFSET 3.20588 6.97332 0.0254387
              CHANNELS 3 Zrotation Xrotation Yrotation
              JOINT LeftArm
              {
                OFFSET 12.8648 0.0341024 0.0247643
                CHANNELS 3 Zrotation Xrotation Yrotation
                JOINT LeftForeArm
                {
                  OFFSET 26.5059 -0.0470976 -0.0807017
                  CHANNELS 3 Zrotation Xrotation Yrotation
                  JOINT LeftHand
                  {
                    OFFSET 26.0013 -0.0100885 -0.0649647
                    CHANNELS 3 Zrotation Xrotation Yrotation
                    JOINT LeftHandThumb1
                    {
                      OFFSET 2.48905 0.190105 3.12053
                      CHANNELS 3 Zrotation Xrotation Yrotation
                      JOINT LeftHandThumb2
                      {
                        OFFSET 3.68274 0 0
                        CHANNELS 3 Zrotation Xrotation Yrotation
                        JOINT LeftHandThumb3
                        {
                          OFFSET 2.55832 0 0
                          CHANNELS 3 Zrotation Xrotation Yrotation
                          End Site
                          {
                            OFFSET 2.194 0 0
                          }
                        }
                      }
                    }
                    JOINT LeftInHandIndex
                    {
                      OFFSET 3.22368 0.508421 1.97842
                      CHANNELS 3 Zrotation Xrotation Yrotation
                      JOINT LeftHandIndex1
                      {
                        OFFSET 5.21684 -0.091368 0.999158
                        CHANNELS 3 Zrotation Xrotation Yrotation
                        JOINT LeftHandIndex2
                        {
                          OFFSET 3.61937 0 0
                          CHANNELS 3 Zrotation Xrotation Yrotation
                          JOINT LeftHandIndex3
                          {
                            OFFSET 2.0521 0 0
                            CHANNELS 3 Zrotation Xrotation Yrotation
                            End Site
                            {
                              OFFSET 1.805 0 0
                            }
                          }
                        }
                      }
                    }
                    JOINT LeftInHandMiddle
                    {
                      OFFSET 3.38211 0.517263 0.756737
                      CHANNELS 3 Zrotation Xrotation Yrotation
                      JOINT LeftHandMiddle1
                      {
                        OFFSET 5.17411 -0.084 0.313895
                        CHANNELS 3 Zrotation Xrotation Yrotation
                        JOINT LeftHandMiddle2
                        {
                          OFFSET 3.94947 0 0
                          CHANNELS 3 Zrotation Xrotation Yrotation
                          JOINT LeftHandMiddle3
                          {
                            OFFSET 2.47579 0 0
                            CHANNELS 3 Zrotation Xrotation Yrotation
                            End Site
                            {
                              OFFSET 1.975 0 0
                            }
                          }
                        }
                      }
                    }
                    JOINT LeftInHandRing
                    {
                      OFFSET 3.36516 0.537895 -0.128947
                      CHANNELS 3 Zrotation Xrotation Yrotation
                      JOINT LeftHandRing1
                      {
                        OFFSET 4.63474 -0.022105 -0.478947
                        CHANNELS 3 Zrotation Xrotation Yrotation
                        JOINT LeftHandRing2
                        {
                          OFFSET 3.44238 0 0
                          CHANNELS 3 Zrotation Xrotation Yrotation
                          JOINT LeftHandRing3
                          {
                            OFFSET 2.3881 0 0
                            CHANNELS 3 Zrotation Xrotation Yrotation
                            End Site
                            {
                              OFFSET 1.857 0 0
                            }
                          }
                        }
                      }
                    }
                    JOINT LeftInHandPinky
                    {
                      OFFSET 3.16105 0.469368 -1.20179
                      CHANNELS 3 Zrotation Xrotation Yrotation
                      JOINT LeftHandPinky1
                      {
                        OFFSET 4.14105 -0.022105 -1.09053
                        CHANNELS 3 Zrotation Xrotation Yrotation
                        JOINT LeftHandPinky2
                        {
                          OFFSET 2.75653 0 0
                          CHANNELS 3 Zrotation Xrotation Yrotation
                          JOINT LeftHandPinky3
                          {
                            OFFSET 1.74189 0 0
                            CHANNELS 3 Zrotation Xrotation Yrotation
                            End Site
                            {
                              OFFSET 1.645 0 0
                            }
                          }
                        }
                      }
                    }
                  }
                }
              }
            }
          }
        }
      }
    }
  }
}
MOTION
Frames:	5
Frame Time:	0.00833333
0 0 0 0 0 -0 24.4618 12.1982 -67.8154 -25.9351 -49.1122 -27.4642 -1.10613 22.1944 -9.60215 12.9968 8.99805 24.3752 22.633 -41.0403 9.99789 2.54479 29.517 -6.05643 -17.3227 -13.0417 -15.6451 -9.37356 12.7208 17.527 -1.98354 3.49784 4.13286 -3.29021 5.65413 6.65316 0.0143791 -0.202986 -0.70959 0.0145481 -0.203435 -0.711086 -0.134464 -3.77415 -12.7183 5.76455 -10.8601 15.6083 76.3514 -2.07823 47.5689 41.7127 -51.9586 33.3733 15.3402 -18.0336 -17.8772 28.184 10.7294 19.1592 -1.63234e-15 -9.93923e-17 -10 2.0016e-15 -2.38542e-15 -10 -3.18055e-15 1.59028e-15 -0 19.9818 0.871897 2.3964 24 -8.34896e-15 6.36111e-15 20 1.90833e-14 3.65764e-14 -3.18055e-15 1.59028e-15 -0 20 0 1.11319e-14 24 4.37326e-15 -1.59028e-14 20 -7.95139e-16 1.59028e-14 -3.18055e-15 1.59028e-15 -0 19.9748 -1.02565 -2.81938 24 1.78906e-15 -3.18055e-15 20 2.38542e-15 -1.59028e-15 -3.18055e-15 1.59028e-15 -0 19.7815 -3.00948 -8.30515 24 -3.97569e-16 -1.90833e-14 20 4.77083e-15 9.54166e-15 11.4149 -12.2574 -28.0476 -26.0553 37.2895 -77.6952 8.0654 -60.7919 9.26141 -23.398 -21.9288 9.52979 -28.184 10.7294 -19.1592 -9.68886e-15 0 10 5.89842e-15 3.18055e-15 10 3.18055e-15 -3.18055e-15 1.59028e-15 -19.9818 0.871897 -2.3964 -24 -3.18055e-15 -1.27222e-14 -20 -6.75868e-15 6.36111e-15 3.18055e-15 -3.18055e-15 1.59028e-15 -20 -6.36111e-15 -1.90833e-14 -24 7.15625e-15 -3.18055e-15 -20 3.18055e-15 -3.18055e-15 3.18055e-15 -3.18055e-15 1.59028e-15 -19.9748 -1.02565 2.81938 -24 7.95139e-16 -9.54166e-15 -20 7.95139e-16 3.18055e-15 3.18055e-15 -3.18055e-15 1.59028e-15 -19.7815 -3.00948 8.30515 -24 1.98785e-15 -3.18055e-15 -20 7.95139e-16 -9.54166e-15 
0 0 0 0 0 -0 24.4939 12.0553 -68.1011 -25.6728 -49.2486 -26.9425 -1.14047 22.147 -9.53238 13.0024 9.03616 24.262 22.7028 -40.9158 10.3531 2.64121 29.5745 -6.29595 -17.3158 -13.1327 -15.4916 -9.38394 12.6693 17.4754 -1.98859 3.48406 4.11875 -3.29817 5.63247 6.63006 0.00645135 -0.202986 -0.698932 0.00660426 -0.203435 -0.700329 -0.27207 -3.76565 -12.5228 5.77662 -10.7063 15.5748 76.6609 -2.2452 47.2369 43.109 -51.8372 35.3045 16.0146 -18.8082 -16.5406 28.184 10.7294 19.1592 3.9181e-14 -1.59028e-14 -10 -5.84912e-14 -6.60959e-15 -10 -1.59028e-14 7.95139e-16 3.18055e-15 19.9818 0.871897 2.3964 24 -1.37161e-14 -3.73715e-14 20 1.11319e-14 -2.3059e-14 -1.59028e-14 7.95139e-16 3.18055e-15 20 -7.15625e-15 -3.18055e-15 24 -1.2921e-14 -5.56597e-14 20 -7.95139e-16 -3.49861e-14 -1.59028e-14 7.95139e-16 3.18055e-15 19.9748 -1.02565 -2.81938 24 -1.35174e-14 -4.92986e-14 20 -8.74653e-15 -5.56597e-14 -1.59028e-14 7.95139e-16 3.18055e-15 19.7815 -3.00948 -8.30515 24 -3.18055e-15 -5.725e-14 20 -1.19271e-14 -4.13472e-14 11.2578 -12.0344 -27.684 -25.3452 37.5709 -78.4502 8.4096 -59.6067 9.43455 -23.0933 -20.592 10.1503 -28.184 10.7294 -19.1592 3.09433e-15 1.90833e-14 10 2.10798e-15 6.36111e-15 10 -8.82781e-32 3.18055e-15 1.59028e-15 -19.9818 0.871897 -2.3964 -24 3.97569e-15 1.27222e-14 -20 -6.75868e-15 1.90833e-14 -8.82781e-32 3.18055e-15 1.59028e-15 -20 1.59028e-15 -6.36111e-15 -24 1.11319e-14 3.18055e-15 -20 -3.57812e-15 3.81667e-14 -8.82781e-32 3.18055e-15 1.59028e-15 -19.9748 -1.02565 2.81938 -24 -7.95139e-15 3.18055e-15 -20 -3.97569e-15 2.22639e-14 -8.82781e-32 3.18055e-15 1.59028e-15 -19.7815 -3.00948 8.30515 -24 1.43125e-14 -3.18055e-15 -20 -1.59028e-15 2.54444e-14 
0 0 0 0 0 -0 24.5173 11.9129 -68.4007 -25.3961 -49.3865 -26.4152 -1.16844 22.1242 -9.47118 13.0088 9.02141 24.1654 22.7919 -40.7387 10.5365 2.61137 29.6068 -6.29684 -17.3129 -13.2233 -15.3572 -9.38903 12.6232 17.4123 -1.99235 3.47087 4.10176 -3.30404 5.61144 6.60263 -0.00157874 -0.202987 -0.687829 -0.00143858 -0.203436 -0.689138 -0.413088 -3.7739 -12.319 5.76053 -10.5558 15.548 76.8166 -2.12901 47.0641 44.4898 -52.1267 37.3645 16.104 -18.845 -16.1487 28.184 10.7294 19.1592 2.4505e-14 -7.55382e-15 -10 5.08171e-14 -1.40174e-14 -10 -6.62086e-32 2.38542e-15 1.59028e-15 19.9818 0.871897 2.3964 24 -9.93923e-16 4.37326e-14 20 -1.19271e-15 -3.10104e-14 -6.62086e-32 2.38542e-15 1.59028e-15 20 4.77083e-15 1.90833e-14 24 8.34896e-15 1.43125e-14 20 -7.95139e-16 -4.21423e-14 -6.62086e-32 2.38542e-15 1.59028e-15 19.9748 -1.02565 -2.81938 24 -2.5842e-15 2.06736e-14 20 -3.97569e-15 -3.49861e-14 -6.62086e-32 2.38542e-15 1.59028e-15 19.7815 -3.00948 -8.30515 24 5.96354e-15 6.36111e-15 20 0 -1.90833e-14 11.4312 -12.1616 -28.1275 -25.7457 37.5859 -78.1418 8.68165 -58.4171 9.55712 -23.1727 -20.6927 10.1472 -28.184 10.7294 -19.1592 -5.60818e-16 3.18055e-15 10 1.26381e-14 1.59028e-15 10 -3.18055e-15 6.36111e-15 1.59028e-15 -19.9818 0.871897 -2.3964 -24 0 1.27222e-14 -20 -2.78299e-15 6.36111e-15 -3.18055e-15 6.36111e-15 1.59028e-15 -20 -3.18055e-15 -3.18055e-15 -24 4.77083e-15 1.90833e-14 -20 -3.97569e-15 1.90833e-14 -3.18055e-15 6.36111e-15 1.59028e-15 -19.9748 -1.02565 2.81938 -24 -1.11319e-14 1.27222e-14 -20 -4.77083e-15 1.59028e-14 -3.18055e-15 6.36111e-15 1.59028e-15 -19.7815 -3.00948 8.30515 -24 3.97569e-16 1.27222e-14 -20 -4.37326e-15 2.54444e-14 
0 0 0 0 0 -0 24.5447 11.7686 -68.7048 -25.1528 -49.5112 -25.9127 -1.16256 22.1044 -9.45222 13.0092 8.97601 24.1049 22.8899 -40.5581 10.6738 2.53981 29.6423 -6.21872 -17.314 -13.3197 -15.2408 -9.40016 12.5716 17.3432 -1.99787 3.45675 4.08294 -3.31279 5.58921 6.57212 -0.009154 -0.202987 -0.677206 -0.00902318 -0.203436 -0.678423 -0.54789 -3.79946 -12.1234 5.73759 -10.4099 15.504 77.4782 -3.03753 45.954 46.3368 -50.9959 39.5045 16.1187 -18.8274 -15.9008 28.184 10.7294 19.1592 1.9414e-14 -4.37326e-15 -10 1.45226e-14 -9.21864e-15 -10 1.32417e-31 -4.77083e-15 1.59028e-15 19.9818 0.871897 2.3964 24 -4.37326e-15 1.59028e-14 20 1.07344e-14 -3.97569e-16 1.32417e-31 -4.77083e-15 1.59028e-15 20 5.56597e-15 -7.95139e-16 24 -1.59028e-15 -7.15625e-15 20 -6.36111e-15 -1.03368e-14 1.32417e-31 -4.77083e-15 1.59028e-15 19.9748 -1.02565 -2.81938 24 7.95139e-16 -9.54166e-15 20 -9.54166e-15 -2.8625e-14 1.32417e-31 -4.77083e-15 1.59028e-15 19.7815 -3.00948 -8.30515 24 -3.57812e-15 -0 20 -1.59028e-15 -1.11319e-14 11.518 -12.1815 -28.3536 -25.7939 37.6518 -78.1744 8.90924 -57.213 9.64192 -23.2379 -20.6309 10.198 -28.184 10.7294 -19.1592 -2.24327e-15 1.27222e-14 10 8.56722e-15 6.36111e-15 10 3.18055e-15 0 1.59028e-15 -19.9818 0.871897 -2.3964 -24 8.74653e-15 1.90833e-14 -20 1.19271e-15 -1.27222e-14 3.18055e-15 0 1.59028e-15 -20 -1.74931e-14 -1.27222e-14 -24 6.36111e-15 3.18055e-15 -20 1.19271e-15 -3.18055e-15 3.18055e-15 0 1.59028e-15 -19.9748 -1.02565 2.81938 -24 -7.95139e-15 1.27222e-14 -20 -1.19271e-15 1.90833e-14 3.18055e-15 0 1.59028e-15 -19.7815 -3.00948 8.30515 -24 4.77083e-15 -0 -20 3.97569e-16 9.54166e-15 
0 0 0 0 0 -0 24.5672 11.6297 -69.0264 -24.9108 -49.6235 -25.422 -1.13195 22.0932 -9.4643 13.0007 8.89661 24.0928 23.0297 -40.2972 10.5286 2.26323 29.6263 -5.75886 -17.3482 -13.4231 -15.1419 -9.40132 12.523 17.2593 -2.00109 3.44229 4.0607 -3.31781 5.56611 6.53658 -0.0192861 -0.198636 -0.658854 -0.0191863 -0.199168 -0.659935 -0.714397 -3.72245 -11.7909 5.71888 -10.2745 15.444 77.8024 -3.26195 45.4454 46.6718 -50.1935 39.7811 16.7656 -19.3975 -14.4719 28.184 10.7294 19.1592 8.49589e-15 -2.18663e-15 -10 -1.55329e-14 -3.37934e-15 -10 -4.96564e-32 -1.19271e-15 -2.38542e-15 19.9818 0.871897 2.3964 24 -4.67144e-15 -6.75868e-15 20 1.88845e-14 4.69132e-14 -4.96564e-32 -1.19271e-15 -2.38542e-15 20 1.27222e-14 -4.77083e-15 24 -2.78299e-15 -3.33958e-14 20 7.15625e-15 1.82882e-14 -4.96564e-32 -1.19271e-15 -2.38542e-15 19.9748 -1.02565 -2.81938 24 -3.77691e-15 -2.54444e-14 20 5.56597e-15 8.74653e-15 -4.96564e-32 -1.19271e-15 -2.38542e-15 19.7815 -3.00948 -8.30515 24 7.95139e-16 -2.06736e-14 20 7.15625e-15 3.18055e-15 11.7889 -12.391 -29.2288 -26.6003 37.4534 -77.3665 9.0594 -55.9772 9.63293 -23.3177 -20.9683 10.1326 -28.184 10.7294 -19.1592 -6.03371e-15 1.59028e-14 10 1.54717e-15 9.54166e-15 10 -0 0 3.18055e-15 -19.9818 0.871897 -2.3964 -24 3.97569e-15 3.18055e-15 -20 -1.19271e-15 2.54444e-14 -0 0 3.18055e-15 -20 -1.59028e-15 -9.54166e-15 -24 8.74653e-15 -0 -20 -6.36111e-15 2.54444e-14 -0 0 3.18055e-15 -19.9748 -1.02565 2.81938 -24 -7.15625e-15 -9.54166e-15 -20 -1.59028e-15 2.8625e-14 -0 0 3.18055e-15 -19.7815 -3.00948 8.30515 -24 9.14409e-15 -9.54166e-15 -20 -7.15625e-15 3.18055e-14 
